
<svg width="50" height="50" viewBox="0 0 50 50" fill="none" xmlns="http://www.w3.org/2000/svg">
<path d="M38.1445 41.6875C39.8079 41.6875 41.1562 39.5241 41.1562 36.8555C41.1562 34.1868 39.8079 32.0234 38.1445 32.0234C36.4812 32.0234 35.1328 34.1868 35.1328 36.8555C35.1328 39.5241 36.4812 41.6875 38.1445 41.6875Z" fill="white"/>
<path d="M10.2539 26.8438L38.4699 24.4969L39.0918 31.9711L10.8758 34.3184L10.2539 26.8438Z" fill="#2F2F2F"/>
<path d="M48.8633 36.0313L45.1562 35.3633C45.289 34.6914 45.3711 34.0039 45.418 33.3086L48.914 32.7891C49.0223 32.7733 49.1265 32.7363 49.2204 32.6802C49.3144 32.6242 49.3964 32.5501 49.4617 32.4623C49.527 32.3745 49.5744 32.2746 49.6011 32.1685C49.6277 32.0624 49.6332 31.952 49.6172 31.8438C49.5508 31.3906 49.1289 31.0859 48.668 31.1445L45.457 31.6211C45.4492 31.2305 45.4375 30.8398 45.4101 30.4492C45.3125 28.9961 44.9883 27.5313 44.4687 26.1094C45.6172 22.8633 49.207 11.9023 46.4726 8.97266C44.3867 6.73828 37.0742 11.5234 34.6601 13.2969C33.789 13.9297 33.043 14.4727 32.3984 14.9297C29.9922 14.2031 27.3828 13.8242 24.7969 13.8242C22.168 13.8203 19.5156 14.2148 17.0742 14.9648C16.3242 14.5273 15.4258 13.9922 14.3633 13.3477C11.8164 11.7969 4.11717 7.65625 2.23045 10.0625C-0.00392418 12.918 3.48045 21.8672 5.21873 25.875C4.64842 27.3711 4.29295 28.9141 4.19139 30.4492C4.16404 30.8203 4.15233 31.1914 4.14451 31.5586L1.33201 31.1406C0.878888 31.082 0.453107 31.3867 0.386701 31.8398C0.320295 32.2969 0.632795 32.7227 1.08983 32.7852L4.18358 33.2461C4.23045 33.9805 4.32029 34.7109 4.46092 35.4258L1.14061 36.0234C1.03288 36.0429 0.930046 36.0834 0.837978 36.1427C0.74591 36.2019 0.666411 36.2787 0.604021 36.3687C0.541631 36.4586 0.497571 36.56 0.474358 36.667C0.451145 36.774 0.449233 36.8845 0.468732 36.9922C0.504269 37.1839 0.605715 37.3572 0.755517 37.482C0.905318 37.6069 1.09405 37.6754 1.28904 37.6758C1.33592 37.6758 1.3867 37.6719 1.43748 37.6641L4.89061 37.043C5.14451 37.8125 5.48045 38.5586 5.89842 39.2734L2.59764 40.3203C2.38713 40.3876 2.21184 40.5355 2.11009 40.7317C2.00834 40.9279 1.98841 41.1564 2.05467 41.3672C2.16795 41.7227 2.49608 41.9453 2.84764 41.9453C2.92967 41.9453 3.01561 41.9336 3.10154 41.9063L6.8867 40.7031C7.52852 41.4933 8.26743 42.1994 9.08592 42.8047C11.4492 44.5703 14.3867 45.7617 17.418 46.4102C18.5703 46.6563 21.543 47.2305 24.664 47.2305C27.7851 47.2305 31.0508 46.6563 32.2031 46.4102C35.2305 45.7617 38.1719 44.5703 40.5351 42.8047C41.4375 42.1289 42.1875 41.3906 42.8086 40.6016L46.9101 41.9023C46.9922 41.9297 47.0781 41.9414 47.164 41.9414C47.5156 41.9414 47.8437 41.7188 47.957 41.3633C48.0937 40.9258 47.8515 40.4531 47.414 40.3164L43.7773 39.1602C44.1758 38.457 44.4961 37.7227 44.7422 36.9688L48.5703 37.6602C48.7876 37.6978 49.0111 37.6485 49.1924 37.5228C49.3736 37.397 49.4982 37.2051 49.539 36.9883C49.6172 36.5469 49.3164 36.1133 48.8633 36.0313ZM20.2656 29.0234C20.2265 29.1328 19.332 31.625 16.3789 32.1992C16 32.2734 15.6445 32.3086 15.3086 32.3086C13 32.3086 11.6445 30.793 11.582 30.7227C11.2773 30.375 11.3125 29.8516 11.6601 29.543C12.0039 29.2422 12.5312 29.2773 12.8359 29.6211C12.8828 29.668 14.0664 30.9531 16.0586 30.5664C18.0508 30.1758 18.668 28.543 18.6953 28.4688C18.8515 28.0391 19.3281 27.8164 19.7578 27.9688C20.1875 28.1211 20.414 28.5898 20.2656 29.0234ZM32.914 31.9883C29.9648 31.3906 29.082 28.8906 29.0469 28.7891C28.8984 28.3516 29.1328 27.8789 29.5664 27.7305C30 27.582 30.4726 27.8125 30.6211 28.2461C30.6484 28.3242 31.2617 29.957 33.2422 30.3555C35.2305 30.7539 36.4297 29.4805 36.4805 29.4258C36.789 29.0859 37.3164 29.0625 37.6562 29.3672C37.9961 29.6719 38.0273 30.1953 37.7226 30.5352C37.6562 30.6055 36.3047 32.0977 34.0156 32.0977C33.668 32.0977 33.3008 32.0664 32.914 31.9883ZM40.7344 38.1563C40.4219 39.5938 38.8906 40.8203 37.4648 39.918C36.4609 39.2852 36.3984 38.2031 36.6015 37.082C36.7773 36.0977 37.1562 35.082 37.2773 34.3164C37.3164 34.0742 37.3047 33.8086 37.3125 33.5664C37.3203 33.2422 37.2578 32.4531 37.7265 32.418C38.0547 32.3906 38.4101 32.6992 38.6601 32.875C39.2656 33.3164 39.7383 34.0977 40.1172 34.7383C40.7226 35.7695 40.9883 36.9688 40.7344 38.1563Z" fill="#F79329"/>
</svg>
