<svg width="50" height="50" viewBox="0 0 50 50" fill="none" xmlns="http://www.w3.org/2000/svg">
<path d="M12.965 35.8293C13.6257 33.2972 12.5825 30.8326 10.6349 30.3243C8.68729 29.8161 6.57281 31.4568 5.91207 33.9889C5.25133 36.521 6.29454 38.9856 8.24214 39.4939C10.1897 40.0021 12.3042 38.3614 12.965 35.8293Z" fill="white"/>
<path d="M44.2656 33.5898C45.4375 35.9336 44.9258 38.5586 43.1211 39.4609C41.3242 40.3594 38.9141 39.1914 37.7422 36.8516C36.5703 34.5117 37.082 31.8828 38.8828 30.9805C40.6836 30.0781 43.0937 31.2461 44.2656 33.5898Z" fill="white"/>
<path d="M11.9453 24.1172H38.625V31.3437H11.9453V24.1172Z" fill="#2F2F2F"/>
<path d="M48.8633 31.2969L45.8867 30.7578C45.85 30.0136 45.7573 29.2732 45.6094 28.543L48.914 28.0508C49.1329 28.0176 49.3297 27.8991 49.4615 27.7213C49.5932 27.5434 49.6492 27.3206 49.6172 27.1016C49.5469 26.6445 49.1172 26.3398 48.668 26.3984L45.1914 26.918C44.7187 25.3945 44.0273 23.9063 43.1289 22.5195C43.5351 18.6055 44.3203 8 41.1406 5.86328C38.6015 4.16016 32.5625 10.4805 30.6211 12.75C30.1719 13.2734 29.7617 13.7461 29.3867 14.1758C28.0273 13.9688 26.6445 13.8516 25.2656 13.8555C23.8867 13.8516 22.5078 13.9688 21.1445 14.1758C20.7695 13.7461 20.3633 13.2734 19.9101 12.75C17.9648 10.4805 11.9258 4.16016 9.3867 5.86328C6.20311 8 6.99217 18.6133 7.39842 22.5234C6.50103 23.9101 5.79911 25.4138 5.31248 26.9922L1.33201 26.4063C0.878888 26.3477 0.453107 26.6523 0.386701 27.1094C0.320295 27.5664 0.632795 27.9883 1.08983 28.0586L4.91014 28.625C4.78904 29.2461 4.70311 29.8633 4.66014 30.4844C4.65623 30.543 4.65623 30.6055 4.65233 30.6641L1.14451 31.2969C1.03679 31.3164 0.933952 31.3569 0.841884 31.4161C0.749816 31.4753 0.670317 31.5521 0.607927 31.6421C0.545537 31.7321 0.501477 31.8334 0.478264 31.9404C0.455051 32.0474 0.45314 32.1579 0.472638 32.2656C0.50674 32.458 0.607784 32.6322 0.757903 32.7573C0.908022 32.8824 1.09754 32.9504 1.29295 32.9492C1.33983 32.9492 1.39061 32.9453 1.44139 32.9375L4.61326 32.3633C4.62498 33.2109 4.69139 34.0547 4.82811 34.8828L2.60154 35.5898C2.39104 35.6571 2.21574 35.805 2.11399 36.0012C2.01224 36.1974 1.99232 36.4259 2.05858 36.6367C2.09187 36.7414 2.14547 36.8385 2.21631 36.9224C2.28716 37.0064 2.37385 37.0756 2.47144 37.126C2.56902 37.1764 2.67559 37.2071 2.78505 37.2163C2.89451 37.2255 3.00471 37.2131 3.10936 37.1797L5.19139 36.5195C5.86326 38.8984 7.1992 41.0938 9.55467 42.8516C11.918 44.6133 14.8555 45.8086 17.8867 46.457C19.0351 46.7031 22.0117 47.2773 25.1328 47.2773C28.2539 47.2773 31.5195 46.7031 32.6719 46.457C35.6992 45.8086 38.6406 44.6133 41.0039 42.8516C43.3086 41.1328 44.6328 38.9961 45.3203 36.6758L46.918 37.1836C47.1288 37.2503 47.3575 37.2306 47.5538 37.1288C47.75 37.0269 47.8979 36.8514 47.9648 36.6406C48.1055 36.2031 47.8633 35.7305 47.4219 35.5938L45.6953 35.0469C45.8398 34.1992 45.918 33.332 45.9336 32.4609L48.5781 32.9414C48.6289 32.9492 48.6797 32.9531 48.7305 32.9531C49.125 32.9531 49.4765 32.668 49.5508 32.2695C49.6172 31.8125 49.3164 31.3789 48.8633 31.2969ZM11.75 32.8359C11.6523 33.0586 11.5273 33.293 11.457 33.5273C11.2383 34.2695 11.1406 35.3516 10.8789 36.3125C10.5781 37.4102 10.0547 38.3594 8.87889 38.5C7.20701 38.7031 6.35154 36.9297 6.69139 35.5C6.97264 34.3203 7.72654 33.3516 8.72264 32.6836C9.33592 32.2734 10.1015 31.7695 10.8398 31.6289C11.1406 31.5742 11.5898 31.4531 11.8789 31.6172C12.2773 31.8555 11.8789 32.5391 11.75 32.8359ZM12.6406 29.7969C12.289 29.5 12.2422 28.9805 12.5351 28.6289C12.6094 28.543 14.3281 26.5234 17.2969 27.0313C20.2617 27.5352 21.2226 30.0078 21.2617 30.1133C21.3083 30.2396 21.3238 30.3753 21.3069 30.5089C21.29 30.6425 21.2411 30.7701 21.1645 30.8808C21.0879 30.9915 20.9857 31.0822 20.8666 31.1451C20.7476 31.208 20.6151 31.2413 20.4805 31.2422C20.1445 31.2422 19.832 31.0391 19.7031 30.7031C19.6719 30.6211 19.0078 29.0156 17.0195 28.6758C15.0195 28.3359 13.8633 29.6445 13.8125 29.7031C13.5117 30.0508 12.9883 30.0938 12.6406 29.7969ZM36.7031 29.7188C36.6601 29.668 35.5117 28.3438 33.5078 28.6758C31.5078 29.0039 30.8398 30.6211 30.8125 30.6875C30.6836 31.0117 30.3672 31.2148 30.0351 31.2148C29.9375 31.2148 29.832 31.1953 29.7344 31.1563C29.5298 31.0767 29.365 30.9197 29.2758 30.7192C29.1865 30.5187 29.18 30.2911 29.2578 30.0859C29.2969 29.9805 30.2695 27.5156 33.2422 27.0273C36.2148 26.5469 37.9219 28.5703 37.9922 28.6563C38.2851 29.0117 38.2305 29.5352 37.8789 29.8281C37.5234 30.125 36.9961 30.0742 36.7031 29.7188ZM41.3164 38.5C40.1367 38.3594 39.6172 37.4102 39.3164 36.3125C39.0508 35.3477 38.957 34.2695 38.7344 33.5273C38.664 33.2891 38.539 33.0586 38.4414 32.8359C38.3125 32.5391 37.914 31.8555 38.3203 31.6211C38.6055 31.457 39.0586 31.582 39.3594 31.6328C40.0976 31.7695 40.8633 32.2734 41.4765 32.6875C42.4726 33.3594 43.2265 34.3242 43.5078 35.5039C43.8437 36.9336 42.9922 38.7031 41.3164 38.5Z" fill="#F79329"/>
<path d="M14.0391 36.3047C14.6641 36.3047 15.1329 36.6992 15.5938 36.9688C16.0235 37.2266 16.5743 37.3672 17.0938 37.5078C17.7266 37.6797 18.3633 37.8594 19.0196 37.9648C19.2735 38.0039 19.5313 38.0195 19.8008 38.0195C20.2813 38.0195 20.7696 37.9648 21.2227 37.8906C22.2305 37.7227 22.9649 37.2734 23.8087 36.8711C24.2383 36.668 24.7071 36.5195 25.2227 36.5195C25.336 36.5195 25.4532 36.5273 25.5743 36.543C25.961 36.5938 26.3594 36.7461 26.7071 36.8711C27.2149 37.0547 27.6876 37.3164 28.1837 37.5313C28.8907 37.8398 29.7149 37.9727 30.5665 37.9727C31.9063 37.9727 33.3008 37.6445 34.379 37.1641C34.918 36.9219 35.6993 36.4883 36.168 36.4883C36.4805 36.4883 36.6602 36.6797 36.543 37.25C36.379 38.0391 36.1251 38.8594 35.6758 39.5898C35.0235 40.6328 33.9962 41.5586 32.6837 42.1758C30.1524 43.3672 27.1993 43.6836 24.254 43.6914H24.2422C19.7579 43.6914 15.2813 41.8242 13.8321 38.5664C13.7266 38.3359 13.461 37.7227 13.4024 37.1953C13.3477 36.7305 13.4532 36.3242 13.9571 36.3008C13.9922 36.3047 14.0157 36.3047 14.0391 36.3047ZM14.0391 35.3047C14.0235 35.3047 13.9337 35.3086 13.9141 35.3086C13.3243 35.3398 12.9688 35.6172 12.7774 35.8477C12.4649 36.2187 12.3438 36.7148 12.418 37.3203C12.4922 37.957 12.7735 38.6406 12.9337 38.9883C14.6915 42.9297 19.8868 44.6953 24.254 44.6953C27.9962 44.6836 30.8087 44.1719 33.1212 43.082C34.5626 42.4023 35.7422 41.3828 36.5313 40.125C36.9844 39.3945 37.3087 38.5234 37.5313 37.457C37.6602 36.8398 37.5704 36.3477 37.2696 35.9805C37.0118 35.6641 36.6212 35.4883 36.1758 35.4883C35.5782 35.4883 34.9454 35.7891 34.336 36.082C34.2071 36.1445 34.0899 36.1992 33.9766 36.25C32.9649 36.7031 31.6915 36.9727 30.5704 36.9727C29.8047 36.9727 29.1212 36.8516 28.586 36.6172C28.4102 36.543 28.2383 36.4609 28.0665 36.375C27.7462 36.2227 27.4141 36.0625 27.0469 35.9297L26.9415 35.8906C26.5938 35.7656 26.1602 35.6094 25.711 35.5508C25.543 35.5273 25.3868 35.5195 25.2266 35.5195C24.629 35.5195 24.0235 35.668 23.3868 35.9688C23.2149 36.0508 23.0508 36.1328 22.8868 36.2148C22.2618 36.5273 21.7266 36.7969 21.0587 36.9063C20.5977 36.9844 20.1719 37.0234 19.8008 37.0234C19.5743 37.0234 19.3633 37.0078 19.1758 36.9805C18.6212 36.8945 18.0704 36.7422 17.4883 36.5859L17.3555 36.5508C16.8594 36.418 16.4024 36.293 16.1055 36.1172C16.0157 36.0625 15.9337 36.0117 15.8516 35.9609C15.4219 35.6797 14.8321 35.3047 14.0391 35.3047Z" fill="#2F2F2F"/>
<path d="M13.4102 37.2031C13.4727 37.7305 13.7344 38.3437 13.8399 38.5742C15.293 41.8359 19.7735 43.7031 24.2618 43.6992C27.2032 43.6875 30.1563 43.375 32.6915 42.1836C34.004 41.5664 35.0313 40.6406 35.6837 39.5976C36.1368 38.8672 36.3868 38.043 36.5508 37.2578C36.8438 35.8281 35.2813 36.7695 34.3829 37.1719C32.6212 37.957 30.0079 38.332 28.1837 37.5391C27.6876 37.3242 27.2149 37.0625 26.7071 36.8789C26.3594 36.7539 25.9571 36.6016 25.5743 36.5508C24.9219 36.4609 24.336 36.6328 23.8087 36.8789C22.961 37.2812 22.2305 37.7266 21.2227 37.8984C20.5235 38.0156 19.7305 38.082 19.0196 37.9726C18.3594 37.8672 17.7266 37.6914 17.0938 37.5156C16.5743 37.375 16.0235 37.2344 15.5938 36.9766C15.1133 36.6953 14.629 36.2812 13.9649 36.3125C13.461 36.332 13.3555 36.7344 13.4102 37.2031" fill="white"/>
<mask id="mask0_63_134" style="mask-type:luminance" maskUnits="userSpaceOnUse" x="13" y="36" width="24" height="8">
<path d="M13.4102 37.2031C13.4727 37.7305 13.7344 38.3437 13.8399 38.5742C15.293 41.8359 19.7735 43.7031 24.2618 43.6992C27.2032 43.6875 30.1563 43.375 32.6915 42.1836C34.004 41.5664 35.0313 40.6406 35.6837 39.5976C36.1368 38.8672 36.3868 38.043 36.5508 37.2578C36.8438 35.8281 35.2813 36.7695 34.3829 37.1719C32.6212 37.957 30.0079 38.332 28.1837 37.5391C27.6876 37.3242 27.2149 37.0625 26.7071 36.8789C26.3594 36.7539 25.9571 36.6016 25.5743 36.5508C24.9219 36.4609 24.336 36.6328 23.8087 36.8789C22.961 37.2812 22.2305 37.7266 21.2227 37.8984C20.5235 38.0156 19.7305 38.082 19.0196 37.9726C18.3594 37.8672 17.7266 37.6914 17.0938 37.5156C16.5743 37.375 16.0235 37.2344 15.5938 36.9766C15.1133 36.6953 14.629 36.2812 13.9649 36.3125C13.461 36.332 13.3555 36.7344 13.4102 37.2031" fill="white"/>
</mask>
<g mask="url(#mask0_63_134)">
<path d="M24.4219 35.6797H25.6406V44.6992H24.4219V35.6797ZM19.9961 35.6797H21.2148V44.6992H19.9961V35.6797ZM15.5664 35.6797H16.7852V44.6992H15.5664V35.6797ZM33.1836 35.6797H34.4023V44.6992H33.1836V35.6797ZM28.7539 35.6797H29.9766V44.6992H28.7539V35.6797Z" fill="#2F2F2F"/>
</g>
</svg>
