<svg width="50" height="45" viewBox="0 0 50 45" fill="none" xmlns="http://www.w3.org/2000/svg">
<path d="M47.7273 27.0018H45.4545C45.4545 18.2952 38.3409 11.2535 29.5455 11.2535H27.2727V8.39625C27.9639 8.00124 28.5378 7.43304 28.9368 6.74881C29.3357 6.06457 29.5457 5.28841 29.5455 4.49838C29.5452 3.70835 29.3349 2.9323 28.9356 2.24827C28.5363 1.56424 27.9621 0.996334 27.2707 0.601671C26.5793 0.207007 25.7952 -0.000505418 24.9971 9.2441e-07C24.199 0.000507266 23.4151 0.209015 22.7242 0.604555C22.0334 1.0001 21.4599 1.56873 21.0615 2.25327C20.6631 2.93781 20.4537 3.71412 20.4545 4.50415C20.4545 6.16898 21.3636 7.63133 22.7273 8.39625V11.2535H20.4545C11.6591 11.2535 4.54545 18.2952 4.54545 27.0018H2.27273C1.02273 27.0018 0 28.0142 0 29.2516V36.0009C0 37.2383 1.02273 38.2507 2.27273 38.2507H4.54545V40.5005C4.54545 41.6938 5.02435 42.8383 5.87679 43.6821C6.72923 44.5259 7.88538 45 9.09091 45H40.9091C43.4318 45 45.4545 42.9977 45.4545 40.5005V38.2507H47.7273C48.9773 38.2507 50 37.2383 50 36.0009V29.2516C50 28.0142 48.9773 27.0018 47.7273 27.0018ZM20.1364 33.0312L17.4545 35.686L14.7727 33.0312L12.0909 35.686L9.40909 33.0312L12.0909 30.3765L9.40909 27.7218L12.0909 25.067L14.7727 27.7218L17.4545 25.067L20.1364 27.7218L17.4545 30.3765L20.1364 33.0312ZM40.5909 33.0312L37.9091 35.686L35.2273 33.0312L32.5455 35.686L29.8636 33.0312L32.5455 30.3765L29.8636 27.7218L32.5455 25.067L35.2273 27.7218L37.9091 25.067L40.5909 27.7218L37.9091 30.3765L40.5909 33.0312Z" fill="black"/>
</svg>
