<svg width="55" height="50" viewBox="0 0 55 50" fill="none" xmlns="http://www.w3.org/2000/svg">
<path d="M52.4411 30.002H49.9439C49.9439 20.328 42.1277 12.5038 32.4635 12.5038H29.9663V9.32917C30.7258 8.89026 31.3564 8.25894 31.7947 7.49867C32.2331 6.73841 32.4637 5.87601 32.4635 4.9982C32.4633 4.12039 32.2322 3.25812 31.7934 2.49808C31.3547 1.73804 30.7238 1.10704 29.9641 0.668523C29.2045 0.230008 28.3428 -0.000561575 27.4659 1.02712e-06C26.589 0.000563629 25.7277 0.232238 24.9686 0.671728C24.2095 1.11122 23.5794 1.74303 23.1416 2.50363C22.7039 3.26423 22.4738 4.1268 22.4747 5.00461C22.4747 6.85442 23.4736 8.47926 24.9719 9.32917V12.5038H22.4747C12.8106 12.5038 4.99439 20.328 4.99439 30.002H2.49719C1.12374 30.002 0 31.1269 0 32.5018V40.001C0 41.3759 1.12374 42.5008 2.49719 42.5008H4.99439V45.0005C4.99439 46.3265 5.52058 47.5981 6.45721 48.5357C7.39384 49.4733 8.66418 50 9.98878 50H44.9495C47.7214 50 49.9439 47.7752 49.9439 45.0005V42.5008H52.4411C53.8145 42.5008 54.9383 41.3759 54.9383 40.001V32.5018C54.9383 31.1269 53.8145 30.002 52.4411 30.002ZM21.9503 36.2514C20.9764 34.0516 18.8039 32.5018 16.2318 32.5018C13.6597 32.5018 11.4871 34.0516 10.5132 36.2514C10.1886 35.4765 9.98878 34.6516 9.98878 33.7517C9.98878 32.0942 10.6465 30.5047 11.8173 29.3327C12.9881 28.1607 14.576 27.5023 16.2318 27.5023C17.8875 27.5023 19.4754 28.1607 20.6462 29.3327C21.817 30.5047 22.4747 32.0942 22.4747 33.7517C22.4747 34.6516 22.275 35.4765 21.9503 36.2514ZM44.4251 36.2514C43.4512 34.0516 41.2037 32.5018 38.7065 32.5018C36.2093 32.5018 33.9618 34.0516 32.9879 36.2514C32.6633 35.4765 32.4635 34.6516 32.4635 33.7517C32.4635 32.0942 33.1213 30.5047 34.2921 29.3327C35.4628 28.1607 37.0508 27.5023 38.7065 27.5023C40.3623 27.5023 41.9502 28.1607 43.121 29.3327C44.2918 30.5047 44.9495 32.0942 44.9495 33.7517C44.9495 34.6516 44.7497 35.4765 44.4251 36.2514Z" fill="black"/>
</svg>
